<svg width="127" height="127" viewBox="0 0 127 127" fill="none" xmlns="http://www.w3.org/2000/svg">
<g opacity="0.4">
<mask id="mask0_1_46" style="mask-type:alpha" maskUnits="userSpaceOnUse" x="0" y="0" width="127" height="127">
<rect x="0.0786133" y="0.608276" width="126.196" height="125.956" fill="#DFDDD2"/>
</mask>
<g mask="url(#mask0_1_46)">
<path fill-rule="evenodd" clip-rule="evenodd" d="M69.344 1.0907L70.4898 1.21436L70.1188 4.65036C69.7381 4.6055 69.3561 4.56428 68.973 4.52669L69.344 1.0907Z" fill="#DFDDD2"/>
<path fill-rule="evenodd" clip-rule="evenodd" d="M99.7709 12.6278L100.702 13.308L98.7003 16.0468C98.3924 15.8153 98.0832 15.5885 97.7716 15.3642L99.7709 12.6278Z" fill="#DFDDD2"/>
<path fill-rule="evenodd" clip-rule="evenodd" d="M120.352 37.8348L120.817 38.8884L117.75 40.2451C117.6 39.8923 117.442 39.5407 117.286 39.1891L120.352 37.8348Z" fill="#DFDDD2"/>
<path fill-rule="evenodd" clip-rule="evenodd" d="M125.571 69.9542L125.448 71.0999L122.089 70.7374C122.135 70.3555 122.175 69.9736 122.213 69.5917L125.571 69.9542Z" fill="#DFDDD2"/>
<path fill-rule="evenodd" clip-rule="evenodd" d="M114.033 100.379L113.352 101.31L110.582 99.2853C110.815 98.9786 111.044 98.6706 111.269 98.3602L114.033 100.379Z" fill="#DFDDD2"/>
<path fill-rule="evenodd" clip-rule="evenodd" d="M88.8276 120.96L87.774 121.426L86.3591 118.226C86.7132 118.077 87.0648 117.923 87.4164 117.766L88.8276 120.96Z" fill="#DFDDD2"/>
<path fill-rule="evenodd" clip-rule="evenodd" d="M56.7082 126.181L55.5625 126.057L55.9468 122.489C56.3287 122.535 56.7107 122.576 57.0926 122.615L56.7082 126.181Z" fill="#DFDDD2"/>
<path fill-rule="evenodd" clip-rule="evenodd" d="M26.2826 114.642L25.3514 113.962L27.5059 111.015C27.8127 111.246 28.1218 111.475 28.4322 111.701L26.2826 114.642Z" fill="#DFDDD2"/>
<path fill-rule="evenodd" clip-rule="evenodd" d="M5.70178 89.4359L5.23621 88.3823L8.59097 86.8983C8.74131 87.2523 8.8965 87.604 9.05532 87.9543L5.70178 89.4359Z" fill="#DFDDD2"/>
<path fill-rule="evenodd" clip-rule="evenodd" d="M0.481079 57.3175L0.604746 56.1718L4.24806 56.5646C4.2032 56.9453 4.16198 57.3284 4.1244 57.7103L0.481079 57.3175Z" fill="#DFDDD2"/>
<path fill-rule="evenodd" clip-rule="evenodd" d="M12.0198 26.891L12.6999 25.9598L15.6158 28.0913C15.3842 28.3992 15.1575 28.7096 14.9344 29.02L12.0198 26.891Z" fill="#DFDDD2"/>
<path fill-rule="evenodd" clip-rule="evenodd" d="M37.226 6.31017L38.2808 5.8446L39.7041 9.06721C39.3513 9.21876 39.0009 9.37638 38.6505 9.53521L37.226 6.31017Z" fill="#DFDDD2"/>
<path fill-rule="evenodd" clip-rule="evenodd" d="M76.2633 2.18152L77.3884 2.43249L76.6416 5.78725C76.267 5.70117 75.8923 5.61751 75.5165 5.53749L76.2633 2.18152Z" fill="#DFDDD2"/>
<path fill-rule="evenodd" clip-rule="evenodd" d="M105.217 17.0341L106.067 17.8136L103.775 20.31C103.495 20.0457 103.214 19.7826 102.93 19.5256L105.217 17.0341Z" fill="#DFDDD2"/>
<path fill-rule="evenodd" clip-rule="evenodd" d="M122.865 44.3719L123.211 45.4716L120.009 46.4791C119.898 46.1105 119.786 45.7432 119.668 45.377L122.865 44.3719Z" fill="#DFDDD2"/>
<path fill-rule="evenodd" clip-rule="evenodd" d="M124.48 76.873L124.23 77.9982L120.926 77.2634C121.014 76.8888 121.101 76.5142 121.181 76.1395L124.48 76.873Z" fill="#DFDDD2"/>
<path fill-rule="evenodd" clip-rule="evenodd" d="M109.628 105.826L108.848 106.676L106.307 104.343C106.571 104.063 106.832 103.782 107.09 103.498L109.628 105.826Z" fill="#DFDDD2"/>
<path fill-rule="evenodd" clip-rule="evenodd" d="M82.2902 123.475L81.1906 123.82L80.1357 120.466C80.5031 120.356 80.8705 120.241 81.2354 120.125L82.2902 123.475Z" fill="#DFDDD2"/>
<path fill-rule="evenodd" clip-rule="evenodd" d="M49.7889 125.089L48.6638 124.839L49.4458 121.323C49.8193 121.412 50.1951 121.499 50.5697 121.58L49.7889 125.089Z" fill="#DFDDD2"/>
<path fill-rule="evenodd" clip-rule="evenodd" d="M20.8365 110.237L19.9866 109.458L22.4648 106.759C22.7448 107.023 23.0261 107.284 23.3098 107.542L20.8365 110.237Z" fill="#DFDDD2"/>
<path fill-rule="evenodd" clip-rule="evenodd" d="M3.18721 82.8989L2.84167 81.7992L6.34435 80.6971C6.45468 81.0657 6.56622 81.4331 6.68504 81.7992L3.18721 82.8989Z" fill="#DFDDD2"/>
<path fill-rule="evenodd" clip-rule="evenodd" d="M1.57227 50.3984L1.82324 49.2733L5.39017 50.0674C5.30288 50.4409 5.21801 50.8155 5.13799 51.1914L1.57227 50.3984Z" fill="#DFDDD2"/>
<path fill-rule="evenodd" clip-rule="evenodd" d="M16.4244 21.4445L17.204 20.5946L19.858 23.0303C19.5949 23.3116 19.3318 23.5929 19.0748 23.8778L16.4244 21.4445Z" fill="#DFDDD2"/>
<path fill-rule="evenodd" clip-rule="evenodd" d="M43.7633 3.79682L44.863 3.45007L45.9166 6.79998C45.5492 6.91274 45.1818 7.02549 44.8157 7.14431L43.7633 3.79682Z" fill="#DFDDD2"/>
<path fill-rule="evenodd" clip-rule="evenodd" d="M82.4539 3.84949L83.5475 4.21321L82.4697 7.45643C82.106 7.33155 81.7423 7.2091 81.3761 7.09149L82.4539 3.84949Z" fill="#DFDDD2"/>
<path fill-rule="evenodd" clip-rule="evenodd" d="M109.743 21.5731L110.51 22.4352L107.981 24.6793C107.729 24.3896 107.477 24.101 107.219 23.8149L109.743 21.5731Z" fill="#DFDDD2"/>
<path fill-rule="evenodd" clip-rule="evenodd" d="M124.516 50.5673L124.749 51.6972L121.455 52.3738C121.382 51.9955 121.305 51.6196 121.225 51.2438L124.516 50.5673Z" fill="#DFDDD2"/>
<path fill-rule="evenodd" clip-rule="evenodd" d="M122.812 83.0629L122.448 84.1565L119.236 83.0884C119.361 82.7246 119.484 82.3609 119.602 81.996L122.812 83.0629Z" fill="#DFDDD2"/>
<path fill-rule="evenodd" clip-rule="evenodd" d="M105.089 110.352L104.227 111.117L101.928 108.529C102.218 108.278 102.506 108.024 102.792 107.767L105.089 110.352Z" fill="#DFDDD2"/>
<path fill-rule="evenodd" clip-rule="evenodd" d="M76.0948 125.125L74.9661 125.356L74.2532 121.889C74.6302 121.817 75.0073 121.741 75.3832 121.662L76.0948 125.125Z" fill="#DFDDD2"/>
<path fill-rule="evenodd" clip-rule="evenodd" d="M43.5996 123.421L42.506 123.057L43.6432 119.635C44.007 119.761 44.3707 119.883 44.7356 120.002L43.5996 123.421Z" fill="#DFDDD2"/>
<path fill-rule="evenodd" clip-rule="evenodd" d="M16.3092 105.698L15.543 104.836L18.2867 102.399C18.5376 102.69 18.7923 102.979 19.0493 103.265L16.3092 105.698Z" fill="#DFDDD2"/>
<path fill-rule="evenodd" clip-rule="evenodd" d="M1.53711 76.7044L1.30554 75.5756L4.90521 74.8348C4.97674 75.2131 5.05555 75.589 5.13557 75.9648L1.53711 76.7044Z" fill="#DFDDD2"/>
<path fill-rule="evenodd" clip-rule="evenodd" d="M3.2406 44.2077L3.60433 43.1141L7.05729 44.2611C6.93241 44.6248 6.80875 44.9885 6.69114 45.3547L3.2406 44.2077Z" fill="#DFDDD2"/>
<path fill-rule="evenodd" clip-rule="evenodd" d="M20.9637 16.9173L21.8258 16.1522L24.207 18.8329C23.9184 19.0851 23.6299 19.3385 23.3437 19.5979L20.9637 16.9173Z" fill="#DFDDD2"/>
<path fill-rule="evenodd" clip-rule="evenodd" d="M49.9575 2.14551L51.0863 1.91394L51.7907 5.34023C51.4136 5.41419 51.0378 5.49179 50.6619 5.57302L49.9575 2.14551Z" fill="#DFDDD2"/>
<path fill-rule="evenodd" clip-rule="evenodd" d="M88.2008 6.03308L89.2543 6.50229L87.8698 9.61214C87.5206 9.4521 87.1702 9.29206 86.8174 9.1393L88.2008 6.03308Z" fill="#DFDDD2"/>
<path fill-rule="evenodd" clip-rule="evenodd" d="M113.629 26.3368L114.307 27.2691L111.582 29.249C111.359 28.9362 111.135 28.6246 110.906 28.3155L113.629 26.3368Z" fill="#DFDDD2"/>
<path fill-rule="evenodd" clip-rule="evenodd" d="M125.498 56.6356L125.618 57.7826L122.267 58.1342C122.232 57.7523 122.191 57.3703 122.149 56.9884L125.498 56.6356Z" fill="#DFDDD2"/>
<path fill-rule="evenodd" clip-rule="evenodd" d="M120.629 88.8091L120.16 89.8626L117.061 88.4829C117.221 88.1337 117.379 87.7821 117.533 87.4305L120.629 88.8091Z" fill="#DFDDD2"/>
<path fill-rule="evenodd" clip-rule="evenodd" d="M100.325 114.238L99.3927 114.916L97.3522 112.108C97.665 111.886 97.9778 111.664 98.2882 111.436L100.325 114.238Z" fill="#DFDDD2"/>
<path fill-rule="evenodd" clip-rule="evenodd" d="M70.0266 126.109L68.8797 126.229L68.5074 122.688C68.8906 122.653 69.2725 122.616 69.6544 122.573L70.0266 126.109Z" fill="#DFDDD2"/>
<path fill-rule="evenodd" clip-rule="evenodd" d="M37.8527 121.238L36.7991 120.769L38.2697 117.465C38.6189 117.627 38.9693 117.784 39.3221 117.938L37.8527 121.238Z" fill="#DFDDD2"/>
<path fill-rule="evenodd" clip-rule="evenodd" d="M12.4235 100.934L11.7457 100.001L14.7137 97.8446C14.9356 98.1574 15.1587 98.4702 15.3878 98.7794L12.4235 100.934Z" fill="#DFDDD2"/>
<path fill-rule="evenodd" clip-rule="evenodd" d="M0.553867 70.6347L0.433838 69.4877L4.09049 69.1034C4.12565 69.4865 4.16687 69.8684 4.21052 70.2503L0.553867 70.6347Z" fill="#DFDDD2"/>
<path fill-rule="evenodd" clip-rule="evenodd" d="M5.42419 38.4617L5.8934 37.4081L9.20573 38.8836C9.04569 39.2328 8.88686 39.5819 8.7341 39.9348L5.42419 38.4617Z" fill="#DFDDD2"/>
<path fill-rule="evenodd" clip-rule="evenodd" d="M25.7285 13.0331L26.6609 12.3553L28.7571 15.2397C28.4443 15.4628 28.134 15.6883 27.8248 15.9174L25.7285 13.0331Z" fill="#DFDDD2"/>
<path fill-rule="evenodd" clip-rule="evenodd" d="M56.0269 1.16385L57.1738 1.04382L57.5375 4.51134C57.1556 4.54771 56.7737 4.59015 56.3918 4.63379L56.0269 1.16385Z" fill="#DFDDD2"/>
</g>
</g>
<path d="M64.8218 5.96474V0.608276H62.1436V5.96474C63.0371 5.94655 63.9294 5.94655 64.8218 5.96474Z" fill="#DFDDD2"/>
<path d="M35.6837 12.7968L33.0139 8.1532L30.6934 9.48807L33.3619 14.1316C34.1269 13.6709 34.9005 13.226 35.6837 12.7968Z" fill="#DFDDD2"/>
<path d="M14.0856 33.3108L9.46147 30.6083L8.11084 32.9204L12.7338 35.6228C13.169 34.8433 13.6201 34.0722 14.0856 33.3108Z" fill="#DFDDD2"/>
<path d="M5.43265 61.7635L0.0786133 61.8933L0.142871 64.5703L5.49691 64.4406C5.45811 63.5482 5.43629 62.6571 5.43265 61.7635Z" fill="#DFDDD2"/>
<path d="M64.0398 121.209V126.564H61.3616V121.209C62.2551 121.227 63.1475 121.227 64.0398 121.209Z" fill="#DFDDD2"/>
<path d="M34.9017 114.376L32.2332 119.019L29.9114 117.684L32.5799 113.041C33.3449 113.502 34.1185 113.947 34.9017 114.376Z" fill="#DFDDD2"/>
<path d="M13.6856 93.7338L9.06145 96.4363L7.71082 94.1242L12.3338 91.4218C12.769 92.2013 13.22 92.9724 13.6856 93.7338Z" fill="#DFDDD2"/>
<path d="M90.4001 114.613L93.0699 119.257L95.3905 117.922L92.7219 113.278C91.9569 113.739 91.1834 114.184 90.4001 114.613Z" fill="#DFDDD2"/>
<path d="M112.746 33.8361L117.37 31.1337L118.721 33.4457L114.098 36.1482C113.663 35.3686 113.212 34.5975 112.746 33.8361Z" fill="#DFDDD2"/>
<path d="M120.92 62.6014L126.274 62.73L126.21 65.407L120.856 65.2785C120.895 64.3861 120.917 63.4938 120.92 62.6014Z" fill="#DFDDD2"/>
<path d="M111.954 93.9721L116.579 96.6746L117.929 94.3637L113.306 91.66C112.87 92.4396 112.42 93.2107 111.954 93.9721Z" fill="#DFDDD2"/>
<path d="M91.1228 13.1151L93.7925 8.47156L96.1131 9.80643L93.4446 14.45C92.6796 13.9893 91.906 13.5443 91.1228 13.1151Z" fill="#DFDDD2"/>
</svg>
