<svg width="21" height="22" viewBox="0 0 21 22" fill="none" xmlns="http://www.w3.org/2000/svg">
<path d="M16.6336 10.0039C17.2155 15.3794 19.5 17.0039 19.5 17.0039H1.5C1.5 17.0039 4.5 14.8706 4.5 7.40391C4.5 5.70652 5.13214 4.07866 6.25736 2.87843C7.38258 1.67819 8.9087 1.00391 10.5 1.00391C10.8373 1.00391 11.1717 1.03421 11.5 1.0934" stroke="black" stroke-width="1.5" stroke-linecap="round" stroke-linejoin="round"/>
<path d="M12.23 20.0039C12.0542 20.307 11.8019 20.5586 11.4982 20.7334C11.1946 20.9083 10.8504 21.0004 10.5 21.0004C10.1496 21.0004 9.80542 20.9083 9.50182 20.7334C9.19822 20.5586 8.94582 20.307 8.77002 20.0039" stroke="black" stroke-width="1.5" stroke-linecap="round" stroke-linejoin="round"/>
<circle cx="16.5" cy="4.00195" r="3.5" fill="#FD542C"/>
</svg>
