<svg width="76" height="4" viewBox="0 0 76 4" fill="none" xmlns="http://www.w3.org/2000/svg">
<mask id="mask0_1_118" style="mask-type:alpha" maskUnits="userSpaceOnUse" x="0" y="0" width="76" height="4">
<path d="M62.082 0.244995C61.3388 0.251057 60.7241 0.791794 60.6016 1.49864L60.6004 1.50469L60.598 1.5144C60.5846 1.59805 60.5786 1.68414 60.5786 1.77264C60.5774 1.68414 60.5846 1.59805 60.598 1.5144L60.6004 1.50469L60.6016 1.49864C60.6198 1.39073 60.6501 1.28524 60.6913 1.18583L1.81388 1.84902L0.139526 2.25519L1.82115 2.6286L60.7047 2.36794V2.36552C60.9399 2.90504 61.4794 3.2821 62.1062 3.27604C62.7318 3.27119 63.2629 2.88927 63.4908 2.34732L63.4884 2.35582L73.4241 2.31217L75.3798 1.94723L75.3749 1.34587L73.4144 1.04276L63.4847 1.1543V1.15552C63.2495 0.61842 62.7161 0.244995 62.0953 0.244995H62.082Z" fill="#FD542C"/>
</mask>
<g mask="url(#mask0_1_118)">
<rect x="0.139526" y="0.244995" width="75.2403" height="3.03711" fill="#FD542C"/>
</g>
</svg>
